<svg width="85" height="59" viewBox="0 0 85 59" fill="none" xmlns="http://www.w3.org/2000/svg">
<path d="M0.161809 36.9887C0.6704 34.7795 5.6467 33.5881 11.9534 31.4373C11.9534 31.4373 9.58677 26.7307 11.1642 21.6621C12.7417 16.5935 14.4591 17.9457 15.0671 15.3464C15.3609 14.09 15.4826 13.1338 15.4826 13.1338C15.4826 13.1338 14.3197 9.71454 20.4234 8.2663C26.5271 6.81805 27.3575 11.0017 30.0144 17.4382C32.6714 23.8746 36.5748 25.2422 38.8996 25.8859C41.2245 26.5296 46.7881 28.7824 47.3694 20.0932C47.9507 11.4041 51.5216 7.18016 51.5216 7.18016C51.5216 7.18016 53.7219 0.784052 62.1089 0.0599509C70.4958 -0.66415 74.1911 5.4102 74.1911 5.4102L71.9075 8.26635L75.1878 15.1854C75.1878 15.1854 79.5061 22.0241 73.8177 24.9607C68.1292 27.8973 64.1918 22.6284 63.7284 22.3459C63.265 22.0634 67.5984 44.0677 67.5479 44.4308C67.4974 44.7939 79.9211 39.0806 81.3325 38.3967C82.7438 37.7128 86.813 39.4024 84.0727 42.1378C81.3324 44.8733 81.7892 44.7124 71.285 51.6315C60.7808 58.5507 52.1441 59.0736 39.3561 58.9932C26.568 58.9127 18.0823 54.949 6.01608 45.879C2.12213 42.15 -0.721608 39.9535 0.161809 36.9887Z" fill="white"/>
</svg>
