<svg width="85" height="60" viewBox="0 0 85 60" fill="none" xmlns="http://www.w3.org/2000/svg">
<path d="M79.0176 16.9737C76.6101 20.4464 67.87 18.7284 67.6365 18.7284C66.0801 22.0792 63.0768 26.8801 63.2957 29.4024C63.5146 31.9247 64.4873 32.8264 65.0831 34.2642L69.3875 42.0139L82.5195 37.5176L85 39.784L80.7321 49.6173L75.8076 52.2859C75.8076 52.2859 61.8001 59.8162 41.8832 59.999C21.9663 60.1817 1.68456 36.0554 1.68456 36.0554C1.68456 36.0554 -0.431147 34.118 0.0795317 31.7785C0.59021 29.439 4.56631 29.2196 4.56631 29.2196C4.56631 29.2196 11.8619 27.2091 13.248 27.2822C14.6342 27.3553 16.9688 29.2196 16.9688 29.2196L18.3185 18.4725C18.3185 18.4725 19.1574 10.5035 25.0669 10.6131C30.9763 10.7228 30.575 15.9502 31.8153 17.6317C33.0555 19.3132 35.0983 26.6608 43.5611 26.1125C52.024 25.5641 52.4982 20.483 52.4982 20.483L55.7812 8.85851C55.7812 8.85851 58.7724 0.241491 64.6454 0.0121936C70.5183 -0.217104 71.722 2.86348 71.722 2.86348C71.722 2.86348 74.2755 1.40926 74.7862 1.73028C75.5887 2.23472 75.2604 5.16645 75.2604 5.16645L77.8868 8.27363C77.8868 8.27363 81.4252 13.501 79.0176 16.9737Z" fill="white"/>
</svg>
