<svg width="85" height="65" viewBox="0 0 85 65" fill="none" xmlns="http://www.w3.org/2000/svg">
<path d="M57.909 0.207686C48.1901 2.0771 47.965 12.6577 47.965 12.6577C47.965 12.6577 45.3758 12.6952 42.5989 12.9569C40.8483 13.1219 39.9722 17.1819 42.9367 16.92C45.2314 16.7173 45.7735 15.5594 47.7398 15.9853C48.6029 16.1723 49.4319 20.4238 48.9781 23.2758C48.4903 26.3417 48.2934 28.9615 45.5259 30.7908C42.4416 32.8295 36.5898 30.6787 36.1447 29.8562C33.8182 25.5566 32.4298 23.2758 32.4298 23.2758C32.4298 23.2758 28.4341 19.0994 25.1875 19.2005C21.6456 19.3108 17.8702 24.5469 17.8702 24.5469L12.2415 33.1835L4.54896 34.4173C4.54896 34.4173 1.23143 34.7037 0.30867 36.2493C-0.691554 37.9246 1.05916 41.1845 1.05916 41.1845C1.05916 41.1845 11.0527 55.693 20.7221 60.3643C31.7678 65.7006 40.4225 66.4213 52.6181 62.5704C67.6447 57.8255 79.6 52.3395 83.2382 50.868C87.0282 49.3351 83.6546 45.9881 82.7878 46.157C79.3356 46.83 69.1289 49.8584 69.1289 49.8584C69.1289 49.8584 68.9788 47.3916 67.853 45.5588C66.0749 42.664 61.8491 39.5394 61.6239 38.7543C61.3988 37.9691 61.6615 35.8006 61.6615 35.8006C61.6615 35.8006 63.275 35.4641 63.3501 33.9686C63.4251 32.4731 61.8116 31.9123 61.8116 31.9123L61.5114 25.5564L66.2395 25.8181C66.2395 25.8181 68.566 26.0424 70.3672 23.2758C72.1684 20.5091 69.0914 18.0041 68.5285 16.4712C67.9656 14.9383 68.4534 13.6671 68.7536 13.5176C69.0538 13.368 71.1552 13.5176 70.9301 11.1248C70.7049 8.73196 67.8155 9.70404 67.8155 9.70404C67.8155 9.70404 67.6279 -1.66173 57.909 0.207686Z" fill="white"/>
</svg>
