<svg width="85" height="55" viewBox="0 0 85 55" fill="none" xmlns="http://www.w3.org/2000/svg">
<path d="M17.2095 6.21314C13.0344 7.93338 10.1068 10.1144 7.07939 14.8826C2.93205 15.1716 1.12271 15.5487 0.0875622 19.7231C-0.353844 23.1371 0.748388 24.8094 6.28641 26.8754C6.28641 26.8754 9.53032 30.1988 8.88158 33.2331C8.23284 36.2674 6.14224 39.374 9.38593 43.203C12.6296 47.032 35.3355 58.5914 55.0139 53.8954C74.6923 49.1994 84.4829 40.8472 85 34.678C83.8467 32.3661 79.6659 32.2939 75.341 30.7045C71.0161 29.1151 67.089 25.1732 68.7095 20.3011C70.3159 13.9526 70.4269 11.1465 66.6912 9.89768C62.1526 9.64046 60.2401 11.8618 57.6088 18.7839C55.5406 23.2136 53.262 24.7671 47.4453 26.0807C43.1924 26.3746 40.9563 25.9812 37.4258 24.2746C38.406 22.1166 38.798 20.7766 39.0837 18.0615C39.2708 14.119 38.0484 10.7646 36.1284 8.23602C34.4729 6.05581 31.9816 4.49672 29.4247 4.55149C27.6837 1.1443 26.3927 0.0124724 23.2978 0C19.1123 0.684572 18.235 2.35859 17.2095 6.21314Z" fill="white"/>
</svg>
