<svg width="85" height="69" viewBox="0 0 85 69" fill="none" xmlns="http://www.w3.org/2000/svg">
<path d="M0 43.9121C7.91305e-06 39.4634 3.34371 39.6385 5.01538 39.3233C6.68706 39.008 15.1151 38.4476 15.7421 36.7662C16.3692 35.0848 12.8515 33.2632 13.0257 29.6202C13.1998 25.9772 15.9859 26.0823 16.1252 24.7511C15.9511 23.5952 15.2197 20.3024 15.2197 20.3024C15.2197 20.3024 15.0804 13.9972 20.5134 12.9813C25.9463 11.9655 27.7225 17.1498 27.7225 17.1498L35.8719 30.2858C35.8719 30.2858 38.1008 33.8237 43.3944 34.139C45.2402 34.0339 47.6085 33.4384 48.4443 31.1265C48.9455 30.0836 47.701 28.7697 47.6085 27.7637C47.7826 26.1873 48.3398 26.7128 48.3398 25.2065C48.3398 22.9272 47.0288 23.672 47.295 21.1782C47.4831 19.4168 49.0773 18.6114 48.6881 18.4809C47.7478 18.1657 46.1806 18.6561 44.1954 19.0064C42.2103 19.3567 42.6979 15.7487 44.1954 15.2933C45.693 14.8379 47.8522 15.8538 48.7926 15.2933C49.7329 14.7328 49.8025 10.214 49.8025 10.214C49.8025 10.214 49.2801 7.1665 49.8025 6.43088C50.3249 5.69527 52.9717 4.95966 53.2852 4.36416C53.5986 3.76867 52.9021 1.74128 54.5738 0.545984C55.8136 -0.340561 58.3002 -0.0845439 60.2853 0.861246C61.9918 1.21154 63.6635 0.26574 64.6735 0.756158C65.6834 1.24658 66.3572 1.82523 67.1113 4.64439C68.4714 9.72886 69.8278 18.4475 69.8278 19.0064C69.8278 19.8751 71.5691 25.4868 68.4696 28.1139C65.37 30.7411 61.2256 27.028 61.2256 27.028C61.2256 27.028 61.0885 31.4186 61.643 34.139C62.2482 37.1079 63.2456 38.5176 64.3943 41.2149C65.5431 43.9121 64.8819 53.5802 64.8819 53.5802C64.8819 53.5802 80.4494 47.5902 82.2957 47.5902C85.6385 47.5902 85.743 52.9163 83.3748 54.2107C78.5682 56.8379 66.3471 62.6841 53.8419 65.4901C45.1056 67.4503 38.4834 69.9738 29.9081 68.6149C21.3328 67.256 18.2491 63.9138 13.5127 61.1114C8.7763 58.3091 -4.16861e-06 46.2557 0 43.9121Z" fill="white"/>
</svg>
