<svg width="85" height="90" viewBox="0 0 85 90" fill="none" xmlns="http://www.w3.org/2000/svg">
<path d="M2.90119 0.119812C-1.89166 1.02961 0.699206 6.07269 0.699206 6.74856L7.30516 17.0816L22.2009 54.7745C22.2009 54.7745 24.5975 58.0242 26.6697 59.9735C28.5211 61.7153 23.626 62.6383 20.7764 62.8333C17.0613 63.0875 11.9921 64.3867 10.2846 67.7074C8.62584 70.9332 13.0044 75.6356 17.5382 79.2752C22.072 82.9147 34.5064 87.9836 48.3012 89.6082C49.9892 89.807 64.557 92.2727 78.481 81.8095C78.481 81.8095 86.2405 76.7407 84.8282 73.8812C83.0822 70.3461 76.7327 73.4913 74.4012 72.5815C69.0455 70.4915 67.6657 61.9235 67.0825 59.2587C66.9242 58.5353 65.4048 44.6376 70.5801 45.9365C72.3938 46.3917 79.2818 48.0366 81.784 43.7916C85.3463 37.748 78.2226 34.5639 78.028 33.5238C77.7977 32.2932 79.4776 31.8662 79.1287 30.6641C78.6856 29.1375 76.2793 29.5586 75.826 28.9746C74.7665 27.6099 76.3435 23.5801 75.1133 23.1255C73.8831 22.6708 70.9684 26.2969 70.9684 26.5049C70.9684 26.7128 67.6179 23.8802 65.0104 23.7106C60.153 23.3948 57.5139 30.2321 56.2021 35.993C55.1662 40.5425 55.1011 48.1457 54.583 53.9947C54.583 53.9947 46.526 54.3119 41.8245 52.5649C39.7032 51.7767 36.6436 49.9657 36.6436 49.9657C36.6436 49.9657 39.8942 48.4646 41.8245 47.4962C44.6741 46.0664 46.7603 41.9725 45.3868 39.5677C44.496 38.0079 38.7809 38.0079 36.9027 38.4629C32.6573 39.4912 30.2485 41.7635 25.828 40.0226C21.689 38.3925 19.3513 31.9638 19.3513 31.9638C19.3513 31.9638 15.7148 23.8928 13.9762 18.7716C12.0627 13.1352 10.8675 5.90391 10.1548 4.409L10.1516 4.40232C9.83055 3.72885 7.67792 -0.786926 2.90119 0.119812Z" fill="white"/>
</svg>
